<?xml version="1.0" encoding="UTF-8"?>
<svg width="448px" height="366px" viewBox="0 0 448 366" version="1.1" xmlns="http://www.w3.org/2000/svg" xmlns:xlink="http://www.w3.org/1999/xlink">
    <!-- Generator: Sketch 62 (91390) - https://sketch.com -->
    <title>Fill 1</title>
    <desc>Created with Sketch.</desc>
    <g id="Design" stroke="none" stroke-width="1" fill="none" fill-rule="evenodd">
        <g id="start---video-alt-2" transform="translate(-496.000000, -207.000000)" fill="#FFFFFF">
            <path d="M720.001876,255.235663 L703.634297,279.834153 L739.596225,333.766818 C747.951463,345.711055 761.807706,353.523099 777.489113,353.523099 L785.544221,353.523099 L720.001876,255.235663 Z M703.534504,315.913287 C686.075578,315.913287 672.807215,326.060544 665.402638,337.11698 L654.462156,353.527225 L687.234079,353.527225 C687.234079,353.527225 688.907678,351.02173 695.530042,341.11377 C702.152406,331.206186 713.261711,328.250602 717.954615,327.922412 C723.251531,327.4817 726.129776,328.36725 728.470788,329.401329 C723.44624,321.301978 715.164909,315.913287 703.534504,315.913287 L703.534504,315.913287 Z M800.486934,266.975485 L720.000375,221.231064 L639.512316,266.975485 L639.512316,364.575785 L720.000375,410.309329 L800.486934,364.575785 L800.486934,266.975485 Z M812.862411,259.776686 L812.862411,371.774583 L720.000375,424.538142 L627.13909,371.774583 L627.13909,259.776686 L720.000375,207 L812.862411,259.776686 Z M875.543019,470.44197 C875.055308,468.225656 873.98572,466.391169 872.351514,464.982765 C870.582999,463.463715 868.394302,462.700064 865.847701,462.700064 C863.354748,462.700064 861.217824,463.452462 859.529218,464.942257 C857.946409,466.339408 856.879072,468.184773 856.363974,470.44197 L875.543019,470.44197 Z M879.131071,460.800688 C882.495151,464.163978 884.209267,468.529466 884.209267,473.792132 C884.209267,475.003997 884.183756,475.900799 884.142863,476.439781 L884.103846,476.864365 L856.337713,476.864365 C856.786407,479.382237 857.881881,481.452272 859.621883,482.993827 C861.468057,484.630275 863.816572,485.460314 866.574015,485.460314 C868.63178,485.460314 870.503464,484.987721 872.153428,484.050036 C873.802641,483.114225 875.081569,481.822845 875.952321,480.199524 L876.13615,479.843954 L883.180947,482.508106 L882.995617,482.942066 C881.729444,485.910403 879.592895,488.256492 876.638493,489.918446 C873.696845,491.565772 870.214589,492.399562 866.30915,492.399562 C860.874925,492.399562 856.363974,490.631837 852.909105,487.150024 C849.439605,483.66821 847.684221,479.158318 847.684221,473.723493 C847.684221,468.501711 849.439605,464.148975 852.882844,460.800688 C856.311827,457.450526 860.743243,455.762317 866.046162,455.762317 C871.348705,455.762317 875.754235,457.450526 879.131071,460.800688 L879.131071,460.800688 Z M843.476026,491.222954 L843.476026,470.506482 C843.476026,466.213383 842.200849,462.646053 839.684261,459.905386 C837.155667,457.151967 833.777331,455.756691 829.642293,455.756691 C825.48512,455.756691 822.06364,457.5743 819.468643,461.158134 L819.468643,441.92058 L811.085643,441.92058 L811.085643,491.222954 L819.468643,491.222954 L819.468643,471.621953 C819.468643,469.222228 820.295501,467.189701 821.92483,465.581383 C823.557161,463.97119 825.557151,463.155779 827.871902,463.155779 C830.131504,463.155779 831.927406,463.876671 833.210086,465.301203 C834.503645,466.737362 835.159804,468.666368 835.159804,471.032711 L835.159804,491.222954 L843.476026,491.222954 Z M789.103761,492.402562 C793.382111,492.402562 797.170124,491.192573 800.363505,488.805976 C803.568141,486.408127 805.556876,483.280383 806.276062,479.509388 L806.364976,479.039045 L798.42129,478.008716 L798.313619,478.381165 C797.729866,480.373183 796.5935,482.016383 794.934908,483.260129 C793.272564,484.505376 791.333725,485.137 789.170915,485.137 C786.342567,485.137 783.972292,484.104796 782.126118,482.072269 C780.267189,480.026615 779.323656,477.34896 779.323656,474.113571 C779.323656,470.880056 780.276193,468.202777 782.155756,466.157122 C784.025565,464.120845 786.386836,463.090141 789.170915,463.090141 C791.333725,463.090141 793.285319,463.720265 794.968297,464.967387 C796.643772,466.208882 797.746374,467.844956 798.243088,469.827598 L798.33988,470.2188 L806.283191,469.190347 L806.213035,468.734257 C805.629283,464.913376 803.7032,461.760128 800.495187,459.356277 C797.29993,456.96818 793.466898,455.758191 789.103761,455.758191 C783.84211,455.758191 779.464342,457.490659 776.089382,460.90946 C772.716299,464.326385 771.007435,468.768014 771.007435,474.113571 C771.007435,479.461378 772.718174,483.891754 776.091258,487.284675 C779.464342,490.680972 783.84211,492.402562 789.103761,492.402562 L789.103761,492.402562 Z M766.861141,491.222954 L766.861141,470.57137 C766.861141,466.32253 765.57546,462.775829 763.034111,460.033661 C760.485634,457.283618 757.118178,455.890217 753.027409,455.890217 C748.744181,455.890217 745.300942,457.746834 742.787355,461.408308 L742.787355,457.003812 L734.471133,457.003812 L734.471133,491.222954 L742.787355,491.222954 L742.787355,471.621953 C742.787355,469.235356 743.601082,467.293222 745.272805,465.684904 C746.927646,464.091589 748.940766,463.285554 751.257768,463.285554 C753.503865,463.285554 755.229236,463.987693 756.528423,465.430979 C757.822357,466.869013 758.478516,468.796144 758.478516,471.162487 L758.478516,491.222954 L766.861141,491.222954 Z M716.821625,481.939868 C718.734578,479.896089 719.7115,477.258943 719.7115,474.107194 C719.7115,470.929191 718.734578,468.277792 716.821625,466.22276 C714.909048,464.190233 712.429226,463.146777 709.474823,463.146777 C706.50729,463.146777 704.025967,464.190233 702.099884,466.22276 C700.148665,468.277792 699.173243,470.929191 699.173243,474.107194 C699.173243,477.258943 700.148665,479.884837 702.099884,481.926741 C704.025967,483.972395 706.50729,484.998973 709.474823,484.998973 C712.429226,484.998973 714.909048,483.972395 716.821625,481.939868 L716.821625,481.939868 Z M728.164656,457.002312 L728.164656,491.225204 L719.776028,491.225204 L719.776028,486.214589 C716.742091,490.315274 712.731231,492.399562 707.838365,492.399562 C702.86559,492.399562 698.75081,490.683972 695.598322,487.268922 C692.445833,483.879752 690.849893,479.4475 690.849893,474.107194 C690.849893,468.778141 692.458589,464.334637 695.624208,460.919587 C698.802958,457.491409 702.919238,455.762692 707.838365,455.762692 C712.731231,455.762692 716.742091,457.888237 719.776028,462.079691 L719.776028,457.002312 L728.164656,457.002312 Z M677.733096,491.221079 L686.116096,491.221079 L686.116096,441.918704 L677.733096,441.918704 L677.733096,491.221079 Z M660.141362,481.939868 C662.06707,479.896089 663.044368,477.258943 663.044368,474.107194 C663.044368,470.929191 662.06707,468.277792 660.141362,466.22276 C658.22916,464.190233 655.762094,463.146777 652.79456,463.146777 C649.840157,463.146777 647.360335,464.190233 645.421496,466.22276 C643.481157,468.277792 642.49298,470.929191 642.49298,474.107194 C642.49298,477.258943 643.481157,479.884837 645.421496,481.926741 C647.360335,483.972395 649.840157,484.998973 652.79456,484.998973 C655.762094,484.998973 658.22916,483.972395 660.141362,481.939868 L660.141362,481.939868 Z M671.486644,457.002312 L671.486644,491.225204 L663.110397,491.225204 L663.110397,486.214589 C660.074959,490.315274 656.052844,492.399562 651.158102,492.399562 C646.199958,492.399562 642.084053,490.683972 638.918059,487.268922 C635.778326,483.879752 634.182386,479.4475 634.182386,474.107194 C634.182386,468.778141 635.791457,464.334637 638.957076,460.919587 C642.137326,457.491409 646.238975,455.762692 651.158102,455.762692 C656.052844,455.762692 660.074959,457.888237 663.110397,462.079691 L663.110397,457.002312 L671.486644,457.002312 Z M621.893946,491.222954 L634.358337,457.003812 L625.715724,457.003812 L616.268764,484.350095 L616.25976,484.350095 L606.877702,457.003812 L598.168311,457.003812 L610.699105,491.222954 L621.893946,491.222954 Z M587.092771,474.582038 L578.954376,451.872047 L578.926614,451.872047 L570.723691,474.582038 L587.092771,474.582038 Z M601.945819,491.223704 L592.856763,491.223704 L589.440911,481.8476 L568.295266,481.8476 L564.825766,491.223704 L555.790358,491.223704 L572.847485,443.881842 L585.100284,443.881842 L601.945819,491.223704 Z M925.375445,529.844341 C928.292707,529.844341 930.752271,530.8983 932.686982,532.977336 C934.631448,535.067624 935.615499,537.700645 935.615499,540.802508 C935.615499,543.861988 934.640452,546.47438 932.71662,548.564668 C930.805544,550.643704 928.3351,551.698038 925.375445,551.698038 C922.415415,551.698038 919.931841,550.643704 917.999005,548.564668 C916.054539,546.47438 915.068613,543.861988 915.068613,540.802508 C915.068613,537.700645 916.054539,535.067624 917.999005,532.977336 C919.933717,530.8983 922.415415,529.844341 925.375445,529.844341 L925.375445,529.844341 Z M915.396505,573 L915.396505,553.575284 C917.928099,557.238633 921.81328,559.09525 926.950752,559.09525 C931.822984,559.09525 935.930635,557.360907 939.155155,553.93648 C942.369545,550.51993 944,546.100431 944,540.802508 C944,535.508711 942.357915,531.078335 939.12064,527.63928 C935.875111,524.192348 931.756955,522.444878 926.883973,522.444878 C921.831663,522.444878 917.969367,524.368633 915.396505,528.159508 L915.396505,523.692375 L907.013504,523.692375 L907.013504,573 L915.396505,573 Z M882.143248,559.029987 C886.387834,559.029987 889.831448,557.171495 892.383302,553.508146 L892.383302,557.914517 L900.701399,557.914517 L900.701399,523.692 L892.383302,523.692 L892.383302,543.231488 C892.383302,545.627837 891.54744,547.645361 889.899728,549.233425 C888.244887,550.82524 886.232142,551.63315 883.91514,551.63315 C881.666792,551.63315 879.941421,550.931011 878.642234,549.48735 C877.348675,548.049691 876.692516,546.12031 876.692516,543.756217 L876.692516,523.692 L868.30764,523.692 L868.30764,544.280571 C868.30764,548.531286 869.593696,552.088865 872.135045,554.849786 C874.681646,557.623459 878.049103,559.029987 882.143248,559.029987 L882.143248,559.029987 Z M845.602445,529.844341 C848.562475,529.844341 851.046049,530.878046 852.983012,532.916199 C854.923351,534.963728 855.909278,537.615503 855.909278,540.802508 C855.909278,543.991764 854.925227,546.633786 852.984888,548.655436 C851.047925,550.673335 848.564351,551.698038 845.602445,551.698038 C842.594394,551.698038 840.101441,550.67521 838.188864,548.657311 C836.268408,546.636037 835.293737,543.993639 835.293737,540.802508 C835.293737,537.613627 836.268408,534.960353 838.19074,532.914323 C840.103317,530.878046 842.59627,529.844341 845.602445,529.844341 L845.602445,529.844341 Z M845.602445,559.09525 C851.079439,559.09525 855.599769,557.386788 859.039632,554.014496 C862.48137,550.642204 864.225499,546.194949 864.225499,540.802508 C864.225499,535.412317 862.47049,530.957561 859.006617,527.561265 C855.544245,524.166468 851.03517,522.444878 845.602445,522.444878 C840.081182,522.444878 835.549598,524.155591 832.129994,527.527883 C828.710765,530.90205 826.977515,535.367683 826.977515,540.802508 C826.977515,546.196825 828.72352,550.642204 832.165259,554.014496 C835.60137,557.386788 840.123951,559.09525 845.602445,559.09525 L845.602445,559.09525 Z M813.056745,557.915642 L813.056745,539.95109 C813.056745,537.09565 813.763175,534.762689 815.156903,533.017094 C816.543128,531.279 818.283505,530.433958 820.475954,530.433958 C822.071894,530.433958 823.760124,530.776776 825.494874,531.453409 L826.110515,531.694207 L826.110515,524.005937 L825.874914,523.878411 C824.850345,523.318801 823.452491,523.03712 821.723743,523.03712 C819.856936,523.03712 818.068162,523.529968 816.408069,524.510036 C814.880409,525.408714 813.709152,526.568818 812.925063,527.958468 L812.925063,523.690874 L804.738648,523.690874 L804.738648,557.915642 L813.056745,557.915642 Z M774.947389,559.424566 C782.744761,559.424566 789.060992,556.758163 793.720507,551.499248 C798.376271,546.246335 800.400271,539.479246 799.736609,531.387396 L799.701344,530.972189 L769.837679,530.972189 L769.837679,538.172863 L790.738343,538.172863 C790.464099,541.847465 788.88129,544.987961 786.028931,547.515586 C783.046766,550.159858 779.362298,551.501499 775.07907,551.501499 C770.19896,551.501499 766.138204,549.859799 763.005974,546.622159 C759.868117,543.381518 758.277429,539.215944 758.277429,534.244336 C758.277429,529.230345 759.856862,525.055769 762.97221,521.835007 C766.08418,518.620247 770.113423,516.987924 774.947389,516.987924 C777.996332,516.987924 780.830308,517.780831 783.369031,519.346765 C785.88787,520.901073 787.567471,522.893092 788.360564,525.270687 L788.495623,525.674642 L796.977291,523.408443 L796.830603,522.954229 C795.533291,518.935309 792.799484,515.577645 788.705339,512.974255 C784.625824,510.379867 779.997823,509.064482 774.947389,509.064482 C767.468529,509.064482 761.22658,511.447328 756.39449,516.146632 C751.559024,520.847437 749.106963,526.936391 749.106963,534.244336 C749.106963,541.508398 751.559024,547.5861 756.392989,552.309409 C761.224704,557.030467 767.467028,559.424566 774.947389,559.424566 L774.947389,559.424566 Z M715.902478,559.180392 C720.570997,559.180392 724.270472,558.202199 726.896983,556.273192 C729.567388,554.31268 730.920598,551.518377 730.920598,547.971676 C730.920598,546.01904 730.501542,544.317703 729.676935,542.920552 C728.846701,541.516274 727.645431,540.418807 726.106891,539.663033 C724.618998,538.929388 723.174998,538.388156 721.816536,538.054715 C720.476831,537.725025 718.834371,537.446719 716.960811,537.226176 C716.68244,537.181917 716.297149,537.137283 715.82632,537.093025 C714.458854,536.922741 713.402022,536.779838 712.69259,536.670691 C712.022925,536.56492 711.256093,536.362755 710.410853,536.064571 C709.63014,535.794143 709.07415,535.431071 708.759014,534.984358 C708.445753,534.541395 708.286684,533.969032 708.286684,533.27777 C708.286684,531.941756 708.863309,530.905801 710.052573,530.112894 C711.28348,529.293732 712.919938,528.87665 714.918052,528.87665 C717.081238,528.87665 718.84375,529.376999 720.157568,530.360818 C721.453379,531.333761 722.102034,532.590259 722.142927,534.207954 L722.153806,534.650542 L730.067854,534.650542 L730.067854,534.198577 C730.067854,530.610993 728.638861,527.709419 725.819892,525.571121 C723.03994,523.466205 719.394113,522.396868 714.984831,522.396868 C710.661086,522.396868 707.126683,523.410694 704.475786,525.406088 C701.788499,527.43524 700.426285,530.237044 700.426285,533.739111 C700.426285,535.695873 700.858472,537.385582 701.707089,538.76248 C702.561708,540.148754 703.808748,541.222966 705.413692,541.955111 C706.967239,542.664751 708.432998,543.170726 709.771201,543.461784 C711.090647,543.748716 712.74061,544.004516 714.665943,544.223185 C715.711145,544.35296 716.463721,544.45123 716.921794,544.517993 C717.357357,544.57913 717.996634,544.686401 718.873388,544.842057 C719.677736,544.986836 720.250233,545.147742 720.5785,545.322152 C720.934154,545.511189 721.355086,545.757613 721.82554,546.057672 C722.229589,546.315348 722.493328,546.607906 722.634014,546.958225 C722.785955,547.341926 722.863613,547.81452 722.863613,548.364753 C722.863613,549.704518 722.296368,550.740098 721.126987,551.53338 C719.91859,552.350292 718.228109,552.765499 716.098688,552.765499 C713.505941,552.765499 711.437672,552.161254 709.955031,550.962517 C708.475391,549.772782 707.736321,548.210973 707.695429,546.191199 L707.686049,545.748236 L699.966711,545.748236 L699.966711,546.2002 C699.966711,550.262254 701.392328,553.480765 704.201918,555.767217 C706.983746,558.03154 710.920323,559.180392 715.902478,559.180392 L715.902478,559.180392 Z M677.9173,529.86197 C680.879206,529.86197 683.36278,530.896049 685.297492,532.934202 C687.240082,534.979857 688.224133,537.633506 688.224133,540.822387 C688.224133,544.009767 687.240082,546.652165 685.299368,548.67344 C683.36278,550.693214 680.881082,551.716041 677.9173,551.716041 C674.911125,551.716041 672.416296,550.693214 670.503719,548.675315 C668.583263,546.653665 667.608592,544.011643 667.608592,540.822387 C667.608592,537.631631 668.583263,534.978356 670.50522,532.932327 C672.418172,530.896049 674.912626,529.86197 677.9173,529.86197 L677.9173,529.86197 Z M677.9173,559.115129 C683.394294,559.115129 687.914624,557.404791 691.354486,554.034 C694.796225,550.659832 696.54223,546.214828 696.54223,540.822387 C696.54223,535.430321 694.787221,530.975565 691.321472,527.579268 C687.858725,524.184472 683.34965,522.463257 677.9173,522.463257 C672.396037,522.463257 667.864453,524.17322 664.444849,527.545887 C661.025245,530.920054 659.29237,535.385687 659.29237,540.822387 C659.29237,546.214828 661.0365,550.661708 664.480114,554.034 C667.918101,557.404791 672.438806,559.115129 677.9173,559.115129 L677.9173,559.115129 Z M649.903935,519.039204 C651.464985,519.039204 652.754793,518.540731 653.733216,517.562162 C654.71389,516.582094 655.210605,515.314718 655.210605,513.799043 C655.210605,512.281493 654.71389,511.024995 653.72984,510.063305 C652.749166,509.109116 651.463109,508.623395 649.903935,508.623395 C648.387904,508.623395 647.123983,509.109116 646.143684,510.063305 C645.159633,511.023119 644.662918,512.281493 644.662918,513.799043 C644.662918,515.316593 645.159633,516.583969 646.139932,517.562162 C647.11873,518.540731 648.384528,519.039204 649.903935,519.039204 L649.903935,519.039204 Z M645.7764,557.935146 L654.094873,557.935146 L654.094873,523.710753 L645.7764,523.710753 L645.7764,557.935146 Z M620.643155,529.86197 C623.603186,529.86197 626.08676,530.916303 628.019971,532.995339 C629.964061,535.085628 630.950363,537.718648 630.950363,540.822387 C630.950363,543.879992 629.964061,546.492758 628.019971,548.582672 C626.08676,550.661708 623.605061,551.716041 620.643155,551.716041 C617.724018,551.716041 615.253575,550.671085 613.296353,548.610427 C611.332004,546.544519 610.336698,543.924625 610.336698,540.822387 C610.336698,537.718648 611.322624,535.085628 613.266715,532.995339 C615.201427,530.916303 617.6835,529.86197 620.643155,529.86197 L620.643155,529.86197 Z M619.134628,559.115129 C624.187313,559.115129 628.049233,557.215754 630.622096,553.465387 L630.622096,557.932896 L639.006972,557.932896 L639.006972,508.62302 L630.622096,508.62302 L630.622096,527.986974 C628.049233,524.321749 624.162928,522.463257 619.069725,522.463257 C614.195242,522.463257 610.087965,524.210352 606.863071,527.658784 C603.649056,531.095964 602.018226,535.526715 602.018226,540.822387 C602.018226,546.118434 603.649056,550.537558 606.864947,553.954484 C610.087965,557.380786 614.217376,559.115129 619.134628,559.115129 L619.134628,559.115129 Z M578.656122,559.050241 C582.900708,559.050241 586.344322,557.191749 588.896551,553.526524 L588.896551,557.932896 L597.216524,557.932896 L597.216524,523.710378 L588.896551,523.710378 L588.896551,543.249867 C588.896551,545.645841 588.060689,547.665615 586.412977,549.251804 C584.757761,550.843244 582.745015,551.651153 580.428388,551.651153 C578.178165,551.651153 576.45467,550.949015 575.155108,549.505354 C573.861548,548.067695 573.20539,546.138688 573.20539,543.774221 L573.20539,523.710378 L564.820513,523.710378 L564.820513,544.298574 C564.820513,548.551165 566.106945,552.106868 568.646418,554.87004 C571.194895,557.641838 574.561976,559.050241 578.656122,559.050241 L578.656122,559.050241 Z M554.316721,559.115504 C556.542558,559.115504 558.579689,558.796316 560.371839,558.172193 L560.67422,558.066422 L560.67422,551.575388 L560.101347,551.73292 C558.879819,552.070111 557.684552,552.24077 556.548561,552.24077 C555.178468,552.24077 554.127639,551.827438 553.336422,550.97527 C552.53545,550.1171 552.144531,549.026009 552.144531,547.643486 L552.144531,530.19016 L560.279174,530.19016 L560.279174,523.710378 L552.148283,523.710378 L552.213186,512.951751 L545.592698,512.951751 L544.019267,523.710378 L538.774124,523.710378 L538.774124,530.19016 L543.826434,530.19016 L543.826434,547.971676 C543.826434,551.312461 544.782722,554.030624 546.671289,556.052274 C548.565483,558.0833 551.139847,559.115504 554.316721,559.115504 L554.316721,559.115504 Z M516.593406,559.377681 C510.302686,559.377681 505.250376,557.8305 501.574911,554.780397 C497.875811,551.71004 496,547.522337 496,542.330185 L496,541.878221 L504.909353,541.878221 L504.909353,542.330185 C504.909353,545.319151 505.915913,547.585349 507.987935,549.258555 C510.059956,550.933636 513.021862,551.782429 516.789616,551.782429 C520.005507,551.782429 522.511216,551.168808 524.238463,549.962569 C525.941699,548.771334 526.770057,547.155139 526.770057,545.020592 C526.770057,544.055526 526.55734,543.193606 526.138284,542.454335 C525.7121,541.701936 525.209758,541.096191 524.646264,540.653229 C524.08127,540.208391 523.211643,539.804436 522.070025,539.450741 C520.883762,539.085419 519.840435,538.81349 518.967808,538.642831 C518.05954,538.466546 516.817378,538.246378 515.273585,537.988702 C513.533208,537.720149 512.134228,537.484602 510.995985,537.264058 C509.856243,537.04539 508.462515,536.700697 506.857195,536.239356 C505.228241,535.770513 503.866027,535.201901 502.809195,534.549647 C501.760241,533.904894 500.709412,533.091358 499.686344,532.133419 C498.632138,531.149224 497.840171,529.930233 497.337829,528.510577 C496.841489,527.115301 496.591256,525.520111 496.591256,523.767014 C496.591256,519.314509 498.281737,515.710046 501.615804,513.051145 C504.920233,510.418125 509.53923,509.08211 515.347492,509.08211 C521.245418,509.08211 526.00135,510.562528 529.482105,513.484731 C532.983119,516.425688 534.760263,520.45961 534.760263,525.473602 L534.760263,525.925566 L526.113899,525.925566 L526.113899,525.473602 C526.113899,522.699928 525.185747,520.520747 523.356456,518.999072 C521.501279,517.459392 518.850757,516.677738 515.477674,516.677738 C512.352572,516.677738 509.915518,517.289108 508.228789,518.497222 C506.570196,519.685082 505.761722,521.237514 505.761722,523.242661 C505.761722,524.163843 505.973313,524.992007 506.388243,525.705398 C506.814802,526.433417 507.324272,527.015532 507.904273,527.43599 C508.494028,527.86395 509.38729,528.260403 510.558921,528.614473 C511.766944,528.983171 512.821525,529.253599 513.694527,529.424258 C514.580286,529.598292 515.809317,529.81171 517.453278,530.076512 C518.943423,530.297056 520.177706,530.508222 521.113736,530.704386 C522.059145,530.9028 523.215395,531.182606 524.64814,531.562556 C526.064377,531.938755 527.257768,532.344586 528.195674,532.768794 C529.133204,533.193003 530.137889,533.769492 531.183091,534.477257 C532.250803,535.205651 533.116677,536.026314 533.755954,536.91749 C534.393354,537.80529 534.923459,538.907633 535.329384,540.191887 C535.73531,541.479892 535.941274,542.904424 535.941274,544.42985 C535.941274,549.060141 534.193393,552.756872 530.745652,555.412397 C527.333551,558.043542 522.572367,559.377681 516.593406,559.377681 L516.593406,559.377681 Z" id="Fill-1"></path>
        </g>
    </g>
</svg>